Coordinates
version=1
nRows=13
nColumns=22
inDegrees=yes

Units are S.I. units (second, meters, Newtons, ...)
If the header above contains a line with 'inDegrees', this indicates whether rotational values are in degrees (yes) or radians (no).

endheader
time	pelvis_tilt	pelvis_list	pelvis_rotation	pelvis_tx	pelvis_ty	pelvis_tz	hip_flexion_r	hip_adduction_r	hip_rotation_r	knee_angle_r	ankle_angle_r	subtalar_angle_r	hip_flexion_l	hip_adduction_l	hip_rotation_l	knee_angle_l	ankle_angle_l	subtalar_angle_l	lumbar_extension	lumbar_bending	lumbar_rotation
      3.09000000	      5.48326262	     -5.17211225	    -24.63039097	     -0.43806010	      0.90528321	     -0.52413865	    -18.96000321	     10.53273978	     11.67495662	    -19.02289286	     19.63202102	     -9.90857545	     23.20328687	     -5.11899648	      0.87007916	    -17.84952114	      9.34690649	      2.52372221	    -13.97025453	      4.69054306	     -6.49791391
      3.10000000	      5.52015395	     -4.87547962	    -25.02296082	     -0.42653355	      0.90444389	     -0.51988054	    -19.22657477	     10.08997650	     11.73129780	    -19.92398914	     19.06753277	     -9.45963155	     23.33847867	     -4.35526197	      2.74078938	    -19.41820808	      8.79237102	      1.71180519	    -13.73948247	      4.32862464	     -6.59389762
      3.11000000	      5.51882674	     -4.55397985	    -25.44167015	     -0.41485852	      0.90383559	     -0.51551345	    -19.36618055	      9.62895594	     11.77605318	    -20.94221089	     18.22848933	     -8.81734250	     23.49083197	     -3.57517932	      4.42647725	    -21.02161757	      8.16774606	      0.81223710	    -13.43020037	      3.96374610	     -6.65799219
      3.12000000	      5.50272387	     -4.21557216	    -25.88142541	     -0.40307093	      0.90349462	     -0.51102631	    -19.37574328	      9.14754502	     11.75229566	    -22.11272106	     17.10684337	     -8.01159818	     23.63219683	     -2.80203275	      5.83634608	    -22.60816281	      7.60446174	     -0.08815663	    -13.07187039	      3.59066593	     -6.69936002
      3.13000000	      5.48751336	     -3.87644063	    -26.33718046	     -0.39122765	      0.90345608	     -0.50640146	    -19.25819874	      8.65902446	     11.65632585	    -23.45230395	     15.68538448	     -7.09132519	     23.73084122	     -2.07160009	      6.93866904	    -24.13436298	      7.18030293	     -0.93531030	    -12.69569152	      3.21375525	     -6.73973824
      3.14000000	      5.50994701	     -3.52876821	    -26.86894419	     -0.37939675	      0.90378326	     -0.50147491	    -19.02963506	      8.13058053	     11.55744215	    -24.98319137	     13.89475815	     -5.91726559	     23.72070697	     -1.42832506	      7.56998440	    -25.54778700	      7.02348288	     -1.75744783	    -12.33414530	      2.78465923	     -6.76466444
      3.15000000	      5.57275738	     -3.20825548	    -27.42598879	     -0.36760765	      0.90446356	     -0.49634768	    -18.69870975	      7.59630503	     11.35596744	    -26.68702665	     11.74657238	     -4.61644743	     23.58954567	     -0.88781268	      7.85294776	    -26.84567485	      7.12217365	     -2.45205375	    -12.01535357	      2.35008865	     -6.78748737
      3.16000000	      5.70052610	     -2.91607938	    -28.02984735	     -0.35591340	      0.90551946	     -0.49099443	    -18.27492546	      7.03199699	     11.05930525	    -28.57310279	      9.22854619	     -3.16943812	     23.28645506	     -0.45432553	      7.78687128	    -27.98517483	      7.48380932	     -3.02328565	    -11.77243713	      1.89238375	     -6.80689765
      3.17000000	      5.88937142	     -2.65634042	    -28.67408145	     -0.34438013	      0.90690854	     -0.48546375	    -17.73997542	      6.43540236	     10.64551091	    -30.64783929	      6.40188624	     -1.64278874	     22.80223302	     -0.11656398	      7.45596711	    -28.93881600	      8.07386692	     -3.48180429	    -11.61223366	      1.41972996	     -6.84092650
      3.18000000	      6.12653902	     -2.43699829	    -29.34502999	     -0.33306224	      0.90856894	     -0.47984193	    -17.07596735	      5.81480068	     10.11640176	    -32.91303577	      3.34188866	     -0.13205663	     22.15229499	      0.13724353	      6.92916150	    -29.70343106	      8.82997136	     -3.85397380	    -11.54038772	      0.95674153	     -6.90369517
      3.19000000	      6.38941035	     -2.25312524	    -30.05020258	     -0.32203332	      0.91041881	     -0.47417219	    -16.24769138	      5.16679768	      9.49015798	    -35.37250033	      0.18248842	      1.24917239	     21.35891943	      0.32074428	      6.27397396	    -30.26453928	      9.67979337	     -4.15080781	    -11.54202813	      0.51122943	     -6.99633108
      3.20000000	      6.65575296	     -2.10561522	    -30.78446919	     -0.31135808	      0.91236115	     -0.46852529	    -15.23017582	      4.50148188	      8.79156372	    -38.02168674	     -2.93988772	      2.40392271	     20.46810368	      0.44379821	      5.53177236	    -30.65299938	     10.56385959	     -4.38774947	    -11.60861671	      0.10109670	     -7.11741623
      3.21000000	      6.89763021	     -1.98096491	    -31.55506501	     -0.30107630	      0.91430825	     -0.46294034	    -13.98812588	      3.81798574	      8.05318082	    -40.84934547	     -5.87279917	      3.29668895	     19.51715786	      0.51562490	      4.71925925	    -30.86333696	     11.42921959	     -4.58174203	    -11.71112354	     -0.26259714	     -7.27595538
